<svg width="45" height="48" viewBox="0 0 45 48" fill="none" xmlns="http://www.w3.org/2000/svg">
<path fill-rule="evenodd" clip-rule="evenodd" d="M0 24.1508L0.00228091 23.914L0.00698445 23.677L0.0141227 23.4401L0.0236837 23.2031L0.0356909 22.9662L0.0501208 22.7292L0.0669973 22.4924L0.0862964 22.2555L0.108042 22.0188L0.132222 21.7821L0.158836 21.5457L0.187874 21.3094L0.219357 21.0732L0.253275 20.8373L0.289616 20.6017L0.328392 20.3664L0.369602 20.1312L0.413223 19.8965L0.459278 19.662L0.507757 19.4279L0.558657 19.1941L0.611957 18.9609L0.667692 18.728L0.725814 18.4956L0.786358 18.2637L0.84929 18.0322L0.914633 17.8013L0.982363 17.5709L1.05248 17.3412L1.12497 17.112L1.19985 16.8835L1.27711 16.6555L1.35673 16.4282L1.4387 16.2017L1.52303 15.9758L1.60971 15.7507L1.69873 15.5264L1.79009 15.3028L1.88377 15.0801L1.97977 14.8582L2.07809 14.6371L2.17871 14.4169L2.28162 14.1977L2.38682 13.9793L2.49431 13.7618L2.60407 13.5454L2.71608 13.33L2.83035 13.1155L2.94685 12.9021L3.06559 12.6898L3.18656 12.4785L3.30973 12.2683L3.43511 12.0593L3.56267 11.8514L3.69243 11.6447L3.82434 11.4392L3.95842 11.235L4.09465 11.0318L4.233 10.8301L4.37348 10.6295L4.51607 10.4303L4.66075 10.2324L4.80752 10.0358L4.95636 9.84065L5.10726 9.64683L5.2602 9.45436L5.41517 9.26337L5.57217 9.07384L5.73116 8.88576L5.89214 8.69916L6.05511 8.51408L6.22002 8.33053L6.38688 8.14852L6.55568 7.96808L6.72638 7.78922L6.89898 7.61197L7.07347 7.43634L7.24982 7.26236L7.42802 7.09003L7.60806 6.91939L7.78992 6.75046L7.97358 6.58324L8.15901 6.41776L8.34623 6.25403L8.53519 6.09206L8.72587 5.9319L8.91827 5.77355L9.11238 5.61702L9.30816 5.46233L9.5056 5.3095L9.70462 5.15855L9.90541 5.00949L10.1077 4.86235L10.3116 4.71714L10.517 4.57387L10.7241 4.43256L10.9325 4.29321L11.1425 4.15588L11.3541 4.02053L11.5672 3.88722L11.7815 3.75595L11.9975 3.62672L12.2147 3.49956L12.4333 3.37449L12.6534 3.25151L12.8747 3.13065L13.0974 3.0119L13.3213 2.8953L13.5466 2.78084L13.7731 2.66856L14.0009 2.55845L14.2299 2.45052L14.46 2.34481L14.6914 2.24132L14.9239 2.14005L15.1575 2.04102L15.3922 1.94426L15.628 1.84975L15.8648 1.75751L16.1027 1.66757L16.3416 1.57991L16.5815 1.49459L16.8224 1.41156L17.0642 1.33087L17.3068 1.25253L17.5504 1.17652L17.7949 1.10288L18.0402 1.03162L18.2863 0.962733L18.5333 0.89622L18.781 0.832107L19.0294 0.770404L19.2785 0.711124L19.5285 0.654243L19.779 0.599808L20.0302 0.547796L20.282 0.498231L20.5344 0.451124L20.7875 0.406463L21.0411 0.364272L21.2952 0.324551L21.5497 0.2873L21.8048 0.252543L22.0603 0.220267L22.3163 0.190485L22.5726 0.163185L22.8293 0.138415L23.0863 0.116137L23.3437 0.0963656L23.6014 0.0791228L24.9869 0L25.066 6.6757L25.1113 6.67518L25.3026 6.67491L25.4939 6.67652L25.6853 6.68L25.8769 6.68538L26.0683 6.69264L26.2599 6.70176L26.4515 6.71279L26.643 6.7257L26.8345 6.74049L27.0261 6.75718L27.2174 6.77575L27.4087 6.79622L27.5998 6.81857L27.7909 6.84281L27.9818 6.86894L28.1725 6.89695L28.3631 6.92686L28.5534 6.95865L28.7435 6.99232L28.9334 7.02788L29.123 7.06532L29.3122 7.10465L29.5013 7.14585L29.6899 7.18893L29.8781 7.23387L30.0662 7.2807L30.2537 7.3294L30.4408 7.37996L30.6275 7.43238L30.8139 7.48667L30.9997 7.5428L31.185 7.60079L31.3698 7.66064L31.5542 7.72233L31.738 7.78585L31.9212 7.85122L32.1039 7.91841L32.2859 7.98744L32.4673 8.05827L32.6481 8.13094L32.8282 8.20542L33.0076 8.2817L33.1864 8.35978L33.3645 8.43966L33.5418 8.52132L33.7183 8.60476L33.8942 8.68998L34.0692 8.77697L34.2434 8.86573L34.4168 8.95623L34.5893 9.04849L34.7611 9.14249L34.9318 9.23821L35.1018 9.33567L35.2708 9.43483L35.4388 9.53574L35.6059 9.63832L35.7721 9.74255L35.9372 9.84856L36.1014 9.95611L36.2645 10.0654L36.4266 10.1764L36.5876 10.2889L36.7476 10.4032L36.9064 10.519L37.0641 10.6365L37.2208 10.7556L37.3762 10.8763L37.5305 10.9986L37.6836 11.1223L37.8356 11.2477L37.9862 11.3748L38.1357 11.5032L38.2841 11.6332L38.4311 11.7648L38.5767 11.8978L38.7211 12.0324L38.8642 12.1685L39.006 12.3059L39.1464 12.4449L39.2855 12.5853L39.4232 12.7272L39.5596 12.8705L39.6944 13.0151L39.828 13.1612L39.96 13.3087L40.0906 13.4575L40.2198 13.6077L40.3474 13.7592L40.4736 13.912L40.5983 14.0662L40.7214 14.2216L40.8431 14.3784L40.9631 14.5364L41.0817 14.6957L41.1985 14.8562L41.3139 15.018L41.4276 15.1809L41.5397 15.345L41.6502 15.5103L41.7591 15.6768L41.8663 15.8445L41.9717 16.0133L42.0756 16.1831L42.1777 16.3541L42.2781 16.5262L42.3768 16.6993L42.4738 16.8735L42.5691 17.0488L42.6626 17.225L42.7543 17.4023L42.8442 17.5805L42.9324 17.7597L43.0188 17.9399L43.1034 18.1209L43.1861 18.3029L43.2671 18.4859L43.3461 18.6697L43.4233 18.8544L43.4987 19.0398L43.5722 19.2262L43.6438 19.4133L43.7136 19.6013L43.7814 19.7899L43.8474 19.9795L43.9114 20.1696L43.9736 20.3606L44.0337 20.5522L44.092 20.7445L44.1482 20.9374L44.2026 21.131L44.255 21.3253L44.3054 21.5202L44.3538 21.7156L44.4003 21.9116L44.4448 22.1082L44.4872 22.3053L44.5277 22.5028L44.5661 22.701L44.6025 22.8995L44.637 23.0985L44.6694 23.2979L44.6998 23.4977L44.7282 23.6981L44.7544 23.8986L44.7786 24.0996L44.8008 24.3009L44.8209 24.5025L44.839 24.7044L44.8551 24.9066L44.869 25.109L44.8809 25.3117L44.8907 25.5145L44.8985 25.7177L44.904 25.9208L44.9077 26.1242L44.9091 26.3277L44.9085 26.5313L44.9058 26.7351L44.9009 26.939L44.8941 27.1427L44.8851 27.3466L44.8741 27.5504L44.8609 27.7543L44.8456 27.9582L44.8283 28.1619L44.8088 28.3656L44.7873 28.5693L44.7635 28.7727L44.7377 28.9761L44.71 29.1792L44.6799 29.3822L44.6479 29.585L44.6138 29.7876L44.5775 29.9899L44.5392 30.192L44.4988 30.3939L44.4562 30.5954L44.4116 30.7965L44.3649 30.9974L44.3162 31.1979L44.2652 31.398L44.2123 31.5976L44.1573 31.7968L44.1003 31.9956L44.0412 32.1939L43.9799 32.3919L43.9166 32.5891L43.8514 32.786L43.784 32.9822L43.7145 33.1779L43.6431 33.373L43.5696 33.5674L43.4941 33.7612L43.4166 33.9545L43.337 34.147L43.2555 34.3388L43.1719 34.53L43.0864 34.7203L42.9988 34.91L42.9092 35.0988L42.8178 35.2868L42.7242 35.4742L42.6288 35.6605L42.5313 35.8462L42.432 36.0308L42.3306 36.2147L42.2274 36.3975L42.1222 36.5795L42.0152 36.7606L41.9062 36.9406L41.7954 37.1197L41.6825 37.2977L41.5679 37.4747L41.4515 37.6507L41.333 37.8256L41.2128 37.9995L41.0908 38.1723L40.9669 38.3439L40.8412 38.5144L40.7136 38.6837L40.5844 38.8519L40.4533 39.0188L40.3204 39.1846L40.1858 39.3491L40.0495 39.5123L39.9113 39.6743L39.7715 39.8351L39.6299 39.9945L39.4867 40.1526L39.3418 40.3095L39.1952 40.4649L39.0469 40.619L38.8971 40.7715L38.7454 40.9228L38.5923 41.0727L38.4376 41.2211L38.2812 41.3681L38.1233 41.5136L37.9638 41.6577L37.8027 41.8001L37.6402 41.9411L37.4761 42.0807L37.3105 42.2186L37.1434 42.3548L36.9748 42.4897L36.8048 42.6229L36.6333 42.7544L36.4604 42.8843L36.2861 43.0126L36.1105 43.1393L35.9333 43.2642L35.7549 43.3876L35.5751 43.5092L35.394 43.6291L35.2116 43.7472L35.0279 43.8638L34.843 43.9784L34.6567 44.0914L34.4692 44.2025L34.2804 44.3119L34.0906 44.4195L33.8994 44.5251L33.7072 44.6291L33.5138 44.7311L33.3192 44.8313L33.1235 44.9298L32.9268 45.0262L32.7289 45.1208L32.53 45.2135L32.3301 45.3043L32.1292 45.3932L31.9272 45.48L31.7243 45.565L31.5204 45.6481L31.3156 45.7292L31.1098 45.8082L30.9031 45.8854L30.6956 45.9604L30.4871 46.0336L30.278 46.1046L30.0679 46.1738L29.857 46.2408L29.6453 46.3058L29.433 46.3688L29.2199 46.4296L29.006 46.4885L28.7915 46.5453L28.5761 46.5999L28.3603 46.6525L28.1438 46.7031L27.9266 46.7514L27.7089 46.7978L27.4906 46.842L27.2718 46.884L27.0524 46.924L26.8326 46.9617L26.6122 46.9974L26.3914 47.0309L26.1701 47.0622L25.9485 47.0914L25.7264 47.1185L25.5039 47.1433L25.2811 47.166L25.058 47.1866L24.8346 47.2049L24.6109 47.2211L24.3869 47.235L24.1626 47.2468L23.9382 47.2564L23.7137 47.2637L23.4888 47.2689L23.2639 47.2719L23.0387 47.2727L22.8136 47.2713L22.5883 47.2677L22.363 47.2619L22.1376 47.2537L21.9122 47.2434L21.6868 47.231L21.4616 47.2162L21.2362 47.1993L21.0111 47.1802L20.7859 47.1588L20.5609 47.1353L20.3361 47.1095L20.1115 47.0815L19.8869 47.0513L19.6627 47.0188L19.4387 46.9841L19.2149 46.9473L18.9915 46.9083L18.7682 46.8669L18.5455 46.8234L18.3229 46.7778L18.1008 46.7298L17.879 46.6797L17.6578 46.6275L17.4369 46.573L17.2165 46.5163L16.9966 46.4574L16.7772 46.3964L16.5583 46.3332L16.3399 46.2678L16.1222 46.2002L15.9051 46.1305L15.6886 46.0586L15.4727 45.9845L15.2575 45.9083L15.043 45.8301L14.8292 45.7496L14.6161 45.667L14.4039 45.5823L14.1923 45.4954L13.9816 45.4064L13.7717 45.3154L13.5627 45.2223L13.3544 45.127L13.1471 45.0296L12.9408 44.9302L12.7354 44.8287L12.5308 44.7252L12.3273 44.6197L12.1249 44.512L11.9232 44.4024L11.7228 44.2908L11.5234 44.1771L11.3251 44.0614L11.1279 43.9437L10.9318 43.8241L10.7368 43.7023L10.543 43.5788L10.3505 43.4532L10.159 43.3258L9.96887 43.1963L9.78002 43.065L9.59235 42.9318L9.40599 42.7966L9.22094 42.6596L9.03721 42.5206L8.85485 42.3799L8.67384 42.2374L8.49421 42.0928L8.31601 41.9466L8.13922 41.7985L7.96387 41.6487L7.78999 41.4971L7.6176 41.3436L7.44671 41.1884L7.27734 41.0316L7.1095 40.8728L6.94323 40.7126L6.77853 40.5504L6.61542 40.3867L6.45392 40.2214L6.29406 40.0543L6.13584 39.8857L5.97928 39.7154L5.82441 39.5434L5.67124 39.3699L5.51978 39.1949L5.37005 39.0182L5.22208 38.8401L5.07587 38.6603L4.93144 38.4792L4.78882 38.2965L4.64801 38.1123L4.50903 37.9267L4.37189 37.7396L4.23662 37.5511L4.10321 37.3612L3.97171 37.17L3.84212 36.9773L3.71444 36.7833L3.58871 36.588L3.46491 36.3914L3.34309 36.1934L3.22326 35.9943L3.1054 35.7937L2.98958 35.5921L2.87575 35.3892L2.76397 35.1851L2.65423 34.9797L2.54655 34.7732L2.44095 34.5657L2.33742 34.357L2.23601 34.1472L2.1367 33.9363L2.03951 33.7244L1.94446 33.5113L1.85154 33.2974L1.76079 33.0823L1.67221 32.8664L1.5858 32.6494L1.50158 32.4315L1.41958 32.2127L1.33977 31.993L1.26218 31.7725L1.18682 31.5511L1.1137 31.3288L1.04284 31.1058L0.97422 30.882L0.907885 30.6574L0.843818 30.4321L0.782033 30.206L0.72254 29.9793L0.665352 29.7519L0.610468 29.5238L0.557913 29.2951L0.507674 29.0658L0.459763 28.8359L0.414192 28.6054L0.370961 28.3745L0.330082 28.143L0.291566 27.911L0.255403 27.6785L0.221615 27.4456L0.190202 27.2122L0.161176 26.9784L0.134526 26.7443L0.110264 26.5098L0.0884 26.2751L0.0689355 26.0399L0.05187 25.8045L0.0372156 25.5689L0.0249719 25.333L0.0151391 25.0969L0.00771733 24.8606L0.00271821 24.6241L0.000153563 24.3875L0 24.1508ZM22.9014 6.81553L22.8475 2.2653L22.7963 2.27024L22.5614 2.29524L22.327 2.32252L22.0928 2.35211L21.8595 2.3839L21.6264 2.41801L21.3936 2.4544L21.1615 2.49302L20.9296 2.53395L20.699 2.577L20.4679 2.62247L20.2385 2.66998L20.0088 2.71988L19.7802 2.77191L19.5519 2.82625L19.3246 2.88267L19.0979 2.94136L18.8719 3.00223L18.6465 3.06531L18.4222 3.13049L18.1982 3.19793L17.9755 3.26746L17.7533 3.33919L17.5323 3.41291L17.3116 3.48896L17.0922 3.56705L16.8738 3.6472L16.656 3.72953L16.4393 3.81388L16.2239 3.90026L16.009 3.98886L15.7952 4.07947L15.5825 4.17215L15.371 4.26678L15.1605 4.36346L14.9512 4.4621L14.7426 4.56291L14.5355 4.66556L14.3295 4.77021L14.1247 4.87683L13.9211 4.98543L13.7189 5.09588L13.5175 5.20838L13.3174 5.32283L13.1191 5.4389L12.9214 5.55725L12.7256 5.67717L12.5311 5.79896L12.3375 5.92274L12.1454 6.04833L11.9548 6.17576L11.7659 6.30468L11.5778 6.43589L11.3915 6.5685L11.2067 6.70294L11.0232 6.83923L10.8413 6.97714L10.6611 7.1167L10.4819 7.25822L10.3047 7.40109L10.1289 7.54584L9.95469 7.69216L9.78203 7.84018L9.61114 7.98962L9.44152 8.14095L9.27385 8.29363L9.1076 8.44807L8.94328 8.60381L8.78046 8.76124L8.61945 8.92009L8.46008 9.08051L8.30226 9.24259L8.14651 9.40577L7.99251 9.57036L7.83988 9.73688L7.68936 9.90446L7.54069 10.0732L7.39354 10.2438L7.24853 10.4154L7.10513 10.5885L6.96365 10.7628L6.82403 10.9386L6.68623 11.1155L6.55046 11.2936L6.41647 11.473L6.28432 11.6538L6.1543 11.8354L6.02601 12.0186L5.89977 12.2027L5.77548 12.3881L5.65305 12.5745L5.53269 12.7621L5.41431 12.9506L5.29791 13.1403L5.1836 13.3309L5.07116 13.5227L4.96074 13.7156L4.8525 13.9092L4.74619 14.1038L4.64192 14.2995L4.53977 14.4961L4.43962 14.6935L4.34162 14.8917L4.24567 15.0909L4.15183 15.2908L4.06004 15.4917L3.97043 15.6932L3.88284 15.8957L3.7974 16.0988L3.71414 16.3026L3.63296 16.5072L3.55391 16.7124L3.47703 16.9183L3.40228 17.1249L3.32974 17.332L3.25929 17.5398L3.19103 17.7482L3.12495 17.9571L3.06106 18.1664L2.9993 18.3766L2.93977 18.5869L2.88242 18.7979L2.82724 19.0092L2.77426 19.2211L2.72349 19.4332L2.67492 19.6458L2.62854 19.8588L2.58438 20.0721L2.54242 20.2857L2.50267 20.4996L2.46513 20.7137L2.42981 20.9282L2.3967 21.1428L2.36581 21.3577L2.33714 21.5728L2.31068 21.788L2.28644 22.0033L2.26442 22.2189L2.24463 22.4345L2.22704 22.65L2.21168 22.8658L2.19854 23.0816L2.1876 23.2973L2.17889 23.5131L2.17239 23.7288L2.16812 23.9445L2.16604 24.16L2.16618 24.3756L2.16852 24.5909L2.17307 24.8062L2.17982 25.0213L2.18876 25.2362L2.19992 25.4509L2.21325 25.6653L2.22878 25.8796L2.2465 26.0935L2.2664 26.3072L2.28846 26.5206L2.31271 26.7336L2.33913 26.9463L2.3677 27.1585L2.39844 27.3704L2.43134 27.582L2.46637 27.7929L2.50356 28.0035L2.54288 28.2137L2.58433 28.4232L2.6279 28.6324L2.67359 28.8409L2.7214 29.0489L2.77131 29.2563L2.8233 29.4631L2.87741 29.6693L2.93357 29.8747L2.99183 30.0796L3.05215 30.2839L3.11453 30.4874L3.17896 30.6902L3.24541 30.8921L3.31391 31.0934L3.38444 31.2938L3.45698 31.4936L3.53151 31.6923L3.60808 31.8904L3.68659 32.0875L3.76708 32.2838L3.84956 32.4792L3.93398 32.6736L4.02036 32.8672L4.10866 33.0598L4.19889 33.2514L4.29103 33.442L4.38508 33.6316L4.48101 33.8202L4.57883 34.0078L4.6785 34.1943L4.78004 34.3797L4.88342 34.5639L4.98862 34.7471L5.09565 34.9292L5.20449 35.11L5.31507 35.2898L5.42751 35.4684L5.54166 35.6456L5.6576 35.8219L5.77527 35.9968L5.89465 36.1704L6.01574 36.3428L6.13857 36.5139L6.26303 36.6838L6.38922 36.8523L6.517 37.0194L6.64649 37.1852L6.77753 37.3496L6.91022 37.5127L7.04455 37.6745L7.18037 37.8347L7.31782 37.9936L7.45679 38.151L7.59734 38.307L7.73937 38.4614L7.88288 38.6145L8.02791 38.766L8.1744 38.9161L8.32239 39.0646L8.47177 39.2115L8.62262 39.357L8.77481 39.5009L8.92841 39.6433L9.08343 39.784L9.23977 39.9231L9.39737 40.0606L9.55642 40.1965L9.71679 40.3307L9.87823 40.4633L10.0412 40.5944L10.2052 40.7236L10.3706 40.8512L10.5371 40.9772L10.7049 41.1014L10.8738 41.2238L11.0439 41.3446L11.215 41.4636L11.3874 41.581L11.5608 41.6964L11.7355 41.8102L11.911 41.9223L12.0876 42.0324L12.2654 42.1409L12.444 42.2475L12.6237 42.3523L12.8043 42.4553L12.9859 42.5564L13.1684 42.6557L13.3519 42.7532L13.5362 42.8488L13.7214 42.9427L13.9075 43.0345L14.0945 43.1245L14.2822 43.2127L14.4707 43.299L14.6599 43.3832L14.85 43.4657L15.0408 43.5462L15.2323 43.6249L15.4245 43.7016L15.6174 43.7763L15.811 43.8492L16.005 43.9201L16.1998 43.989L16.3952 44.0561L16.5912 44.1212L16.7877 44.1843L16.9846 44.2454L17.1823 44.3046L17.3803 44.3618L17.5788 44.417L17.7779 44.4703L17.9772 44.5216L18.1771 44.5709L18.3772 44.6181L18.5778 44.6635L18.7787 44.7068L18.9799 44.7481L19.1815 44.7875L19.3834 44.8248L19.5854 44.8602L19.7878 44.8935L19.9903 44.9248L20.1931 44.9541L20.3962 44.9814L20.5992 45.0068L20.8025 45.0301L21.0059 45.0514L21.2094 45.0708L21.413 45.088L21.6166 45.1034L21.8203 45.1166L22.024 45.128L22.2276 45.1372L22.4313 45.1445L22.6349 45.1498L22.8385 45.153L23.0419 45.1543L23.2453 45.1536L23.4486 45.1509L23.6516 45.1463L23.8545 45.1395L24.0573 45.1309L24.2599 45.1203L24.4621 45.1076L24.6642 45.0931L24.8661 45.0766L25.0676 45.058L25.2687 45.0374L25.4696 45.015L25.67 44.9906L25.8702 44.9643L26.07 44.9359L26.2693 44.9057L26.4682 44.8735L26.6668 44.8394L26.8649 44.8033L27.0623 44.7654L27.2593 44.7256L27.4559 44.6837L27.6518 44.6401L27.8472 44.5945L28.0421 44.547L28.2362 44.4977L28.4298 44.4464L28.6227 44.3933L28.8151 44.3384L29.0067 44.2816L29.1976 44.2229L29.3878 44.1625L29.5774 44.1001L29.7661 44.0361L29.9539 43.9701L30.1412 43.9023L30.3276 43.8328L30.5131 43.7614L30.6978 43.6884L30.8816 43.6136L31.0646 43.5369L31.2467 43.4585L31.4279 43.3784L31.608 43.2966L31.7874 43.2131L31.9657 43.1277L32.143 43.0409L32.3194 42.9521L32.4947 42.8618L32.669 42.7699L32.8424 42.6762L33.0145 42.5809L33.1856 42.484L33.3555 42.3856L33.5246 42.2853L33.6922 42.1837L33.8591 42.0803L34.0244 41.9755L34.1887 41.869L34.3519 41.761L34.5139 41.6513L34.6744 41.5404L34.8339 41.4278L34.9921 41.3138L35.1491 41.1983L35.3048 41.0812L35.459 40.9629L35.6123 40.8428L35.764 40.7216L35.9143 40.5989L36.0635 40.4747L36.2113 40.349L36.3575 40.2222L36.5025 40.0939L36.6459 39.9644L36.7881 39.8334L36.9289 39.7012L37.068 39.5677L37.2059 39.4328L37.3423 39.2966L37.4771 39.1593L37.6105 39.0207L37.7423 38.881L37.8726 38.7401L38.0016 38.5976L38.1288 38.4544L38.2546 38.3097L38.3787 38.1641L38.5014 38.0172L38.6224 37.8694L38.7418 37.7203L38.8597 37.5701L38.9759 37.4191L39.0906 37.2668L39.2035 37.1136L39.315 36.9592L39.4249 36.8038L39.5326 36.6478L39.6391 36.4905L39.7437 36.3325L39.8468 36.1733L39.9483 36.0132L40.0478 35.8525L40.1457 35.6908L40.242 35.5278L40.3363 35.3646L40.4291 35.2002L40.5202 35.035L40.6093 34.8693L40.6969 34.7024L40.7827 34.5349L40.8665 34.3672L40.9487 34.198L41.0292 34.0283L41.1078 33.8581L41.1846 33.6873L41.2596 33.5157L41.3328 33.3436L41.4043 33.1706L41.4739 32.9971L41.5416 32.8235L41.6076 32.6486L41.6716 32.4736L41.734 32.2979L41.7945 32.1218L41.8532 31.9451L41.9098 31.7685L41.9648 31.5905L42.0178 31.4127L42.069 31.2344L42.1184 31.0558L42.1659 30.8765L42.2114 30.6973L42.2552 30.5174L42.297 30.3372L42.3371 30.1568L42.3753 29.976L42.4114 29.7953L42.4458 29.6138L42.4783 29.4327L42.5089 29.2509L42.5377 29.0691L42.5645 28.8872L42.5895 28.7049L42.6126 28.5229L42.6339 28.3401L42.6531 28.158L42.6706 27.9753L42.6861 27.7929L42.6998 27.61L42.7116 27.4278L42.7215 27.2449L42.7296 27.062L42.7357 26.8795L42.7401 26.6974L42.7425 26.5146L42.7431 26.3321L42.7418 26.1499L42.7386 25.9677L42.7335 25.7856L42.7265 25.6042L42.7178 25.4221L42.7071 25.2408L42.6946 25.0595L42.6803 24.8788L42.6641 24.6978L42.6462 24.5175L42.6263 24.3372L42.6045 24.1574L42.581 23.9778L42.5557 23.7987L42.5284 23.6196L42.4995 23.4412L42.4688 23.2635L42.4361 23.0856L42.4016 22.9084L42.3655 22.7318L42.3274 22.5551L42.2878 22.3797L42.2461 22.2041L42.203 22.0297L42.1577 21.855L42.1109 21.6816L42.0623 21.5085L42.012 21.3357L41.96 21.164L41.9062 20.9929L41.8506 20.8219L41.7935 20.6522L41.7344 20.4826L41.6739 20.314L41.6115 20.1459L41.5475 19.9789L41.4817 19.8121L41.4143 19.6463L41.3454 19.4816L41.2749 19.3175L41.2023 19.1537L41.1287 18.9915L41.0529 18.8293L40.9759 18.6687L40.8972 18.5087L40.8167 18.3493L40.7349 18.1911L40.6514 18.0337L40.5662 17.877L40.4799 17.7218L40.3916 17.567L40.302 17.4135L40.2107 17.2607L40.1182 17.1094L40.0238 16.9585L39.9283 16.809L39.8311 16.6602L39.7325 16.5127L39.6326 16.3665L39.531 16.2209L39.4281 16.0766L39.3238 15.9334L39.2181 15.7915L39.111 15.6503L39.0025 15.5107L38.8927 15.3719L38.7815 15.2345L38.669 15.0982L38.5551 14.963L38.4398 14.8291L38.3234 14.6964L38.2058 14.565L38.0868 14.4347L37.9663 14.3056L37.8451 14.1782L37.722 14.0515L37.5983 13.9265L37.4731 13.8026L37.3469 13.6801L37.219 13.5586L37.0907 13.439L36.9607 13.3204L36.8296 13.2032L36.6978 13.0875L36.5648 12.9731L36.4301 12.8597L36.2948 12.748L36.1586 12.6378L36.0211 12.5289L35.8826 12.4214L35.7434 12.3156L35.6026 12.2107L35.4614 12.1077L35.319 12.0061L35.1755 11.9058L35.0315 11.8071L34.8859 11.7096L34.7403 11.6141L34.593 11.5197L34.4453 11.4269L34.2964 11.3355L34.1469 11.2457L33.9965 11.1575L33.8456 11.071L33.6933 10.9856L33.541 10.9022L33.3873 10.82L33.2331 10.7395L33.0783 10.6607L32.9225 10.5833L32.7662 10.5074L32.6092 10.4333L32.4514 10.3606L32.2933 10.2897L32.1343 10.2202L31.9697 10.1503L31.8149 10.0863L31.6538 10.0216L31.493 9.95883L31.3308 9.89726L31.1687 9.83769L31.0058 9.77955L30.8426 9.72317L30.6787 9.66822L30.5147 9.61515L30.3499 9.56363L30.1848 9.51376L30.0196 9.46566L29.8537 9.41904L29.6872 9.37404L29.5209 9.33087L29.3542 9.28934L29.1865 9.24933L29.0194 9.21117L28.8515 9.17454L28.6836 9.13967L28.515 9.10639L28.3467 9.07486L28.178 9.04496L28.0093 9.0168L27.8399 8.99021L27.6709 8.96538L27.5015 8.94219L27.3319 8.92067L27.1623 8.90084L26.9927 8.88271L26.823 8.86624L26.6532 8.85144L26.4832 8.83831L26.3132 8.82685L26.1436 8.81709L25.9739 8.80899L25.8036 8.80255L25.6342 8.7978L25.4645 8.7947L25.2949 8.79328L25.1251 8.79352L25.0911 8.79391L25.1446 13.3111L25.2409 13.3106L25.3649 13.3113L25.4889 13.3132L25.613 13.3164L25.7372 13.3207L25.8614 13.3264L25.9856 13.3333L26.1099 13.3413L26.2342 13.3506L26.3586 13.3612L26.4829 13.373L26.6071 13.386L26.7314 13.4003L26.8556 13.4158L26.9797 13.4324L27.1038 13.4505L27.2278 13.4697L27.3517 13.4901L27.4755 13.5118L27.5991 13.5348L27.7226 13.559L27.846 13.5844L27.9693 13.611L28.0923 13.6389L28.2151 13.6681L28.3378 13.6985L28.4601 13.73L28.5823 13.7629L28.7042 13.7969L28.826 13.8322L28.9475 13.8688L29.0686 13.9065L29.1894 13.9455L29.3099 13.9856L29.4302 14.0271L29.5501 14.0698L29.6697 14.1136L29.7888 14.1587L29.9077 14.205L30.0261 14.2525L30.1442 14.3012L30.2618 14.3512L30.379 14.4022L30.4958 14.4546L30.6121 14.508L30.7279 14.5627L30.8433 14.6186L30.9582 14.6757L31.0726 14.734L31.1865 14.7934L31.2999 14.8539L31.4127 14.9157L31.525 14.9786L31.6367 15.0427L31.7479 15.1079L31.8585 15.1743L31.9684 15.2418L32.0777 15.3105L32.1865 15.3803L32.2946 15.4512L32.402 15.5232L32.5089 15.5963L32.615 15.6707L32.7204 15.746L32.8251 15.8224L32.9291 15.9001L33.0325 15.9787L33.135 16.0584L33.2369 16.1393L33.3379 16.221L33.4383 16.304L33.5378 16.388L33.6366 16.473L33.7345 16.559L33.8317 16.6461L33.928 16.7343L34.0234 16.8234L34.118 16.9136L34.2118 17.0047L34.3046 17.0969L34.3967 17.19L34.4878 17.2842L34.5781 17.3792L34.6673 17.4753L34.7557 17.5723L34.8432 17.6703L34.9297 17.7691L35.0153 17.869L35.0999 17.9697L35.1836 18.0713L35.2662 18.1739L35.3478 18.2773L35.4284 18.3816L35.5081 18.4868L35.5867 18.593L35.6642 18.6998L35.7408 18.8076L35.8162 18.9162L35.8906 19.0256L35.9639 19.1359L36.0361 19.2469L36.1073 19.3588L36.1773 19.4714L36.2464 19.5847L36.3142 19.6989L36.3809 19.8139L36.4464 19.9295L36.5109 20.0459L36.5741 20.163L36.6363 20.2808L36.6972 20.3994L36.7569 20.5186L36.8155 20.6386L36.873 20.7591L36.9291 20.8802L36.9841 21.0022L37.0378 21.1246L37.0904 21.2478L37.1417 21.3715L37.1918 21.4959L37.2406 21.6208L37.2881 21.7462L37.3345 21.8723L37.3795 21.9988L37.4233 22.126L37.4659 22.2536L37.507 22.3819L37.547 22.5104L37.5856 22.6396L37.623 22.7693L37.659 22.8994L37.6936 23.03L37.7271 23.1609L37.7591 23.2923L37.7898 23.4241L37.8193 23.5564L37.8473 23.689L37.874 23.8219L37.8993 23.9552L37.9233 24.089L37.9459 24.223L37.9672 24.3573L37.9871 24.492L38.0056 24.6268L38.0228 24.762L38.0386 24.8976L38.0529 25.0334L38.0659 25.1693L38.0776 25.3056L38.0878 25.4419L38.0966 25.5786L38.104 25.7153L38.11 25.8523L38.1146 25.9895L38.1178 26.1267L38.1196 26.2641L38.1199 26.4017L38.1188 26.5393L38.1164 26.6769L38.1125 26.8147L38.1071 26.9527L38.1004 27.0905L38.0923 27.2284L38.0827 27.3664L38.0717 27.5043L38.0592 27.6423L38.0453 27.7802L38.03 27.918L38.0133 28.0559L37.9951 28.1936L37.9755 28.3313L37.9544 28.4688L37.932 28.6063L37.9081 28.7436L37.8827 28.8808L37.856 29.0179L37.8278 29.1547L37.7981 29.2915L37.7671 29.428L37.7346 29.5642L37.7007 29.7003L37.6654 29.8362L37.6286 29.9717L37.5905 30.1071L37.5509 30.242L37.5099 30.3767L37.4674 30.5112L37.4235 30.6454L37.3782 30.779L37.3315 30.9125L37.2835 31.0455L37.234 31.1781L37.1831 31.3104L37.1308 31.4423L37.0772 31.5737L37.0221 31.7048L36.9656 31.8352L36.9078 31.9653L36.8486 32.095L36.788 32.224L36.7261 32.3526L36.6627 32.4807L36.598 32.6083L36.5319 32.7353L36.4645 32.8616L36.3957 32.9875L36.3257 33.1128L36.2543 33.2375L36.1815 33.3614L36.1074 33.4849L36.032 33.6076L35.9553 33.7298L35.8772 33.8512L35.7979 33.972L35.7171 34.0919L35.6353 34.2113L35.5521 34.3299L35.4676 34.4478L35.3818 34.5649L35.2948 34.6813L35.2065 34.7969L35.1169 34.9116L35.0261 35.0255L34.9341 35.1388L34.8408 35.251L34.7464 35.3626L34.6507 35.4732L34.5538 35.583L34.4557 35.6919L34.3564 35.7999L34.256 35.9069L34.1544 36.0132L34.0516 36.1184L33.9477 36.2227L33.8426 36.326L33.7364 36.4285L33.629 36.5299L33.5206 36.6302L33.4111 36.7297L33.3003 36.8281L33.1887 36.9254L33.0758 37.0219L32.962 37.1171L32.847 37.2114L32.731 37.3046L32.6139 37.3966L32.4959 37.4876L32.3769 37.5776L32.2568 37.6663L32.1357 37.754L32.0137 37.8406L31.8907 37.926L31.7667 38.0102L31.6417 38.0933L31.5158 38.1752L31.389 38.2559L31.2613 38.3355L31.1326 38.4137L31.0032 38.4909L30.8728 38.5667L30.7416 38.6413L30.6094 38.7147L30.4765 38.7869L30.3427 38.8578L30.2081 38.9274L30.0727 38.9957L29.9365 39.0628L29.7996 39.1286L29.6618 39.193L29.5232 39.2561L29.384 39.3179L29.2441 39.3784L29.1033 39.4375L28.962 39.4953L28.8199 39.5518L28.6772 39.6069L28.5338 39.6606L28.3898 39.713L28.2451 39.7639L28.0997 39.8134L27.9539 39.8617L27.8074 39.9083L27.6603 39.9537L27.5127 39.9977L27.3645 40.0401L27.2159 40.0812L27.0666 40.1208L26.9169 40.159L26.7667 40.1958L26.616 40.2311L26.4647 40.2649L26.3132 40.2973L26.1611 40.3281L26.0086 40.3576L25.8558 40.3856L25.7025 40.412L25.5489 40.437L25.395 40.4604L25.2407 40.4824L25.086 40.5028L24.9311 40.5218L24.7759 40.5392L24.6203 40.5552L24.4646 40.5696L24.3086 40.5825L24.1523 40.5938L23.9959 40.6036L23.8392 40.6119L23.6823 40.6186L23.5253 40.6238L23.3681 40.6275L23.2108 40.6296L23.0533 40.6302L22.8957 40.6293L22.7382 40.6267L22.5804 40.6226L22.4226 40.617L22.2649 40.6098L22.107 40.601L21.9492 40.5907L21.7913 40.5789L21.6335 40.5654L21.4758 40.5504L21.318 40.5339L21.1603 40.5158L21.0028 40.4962L20.8453 40.4749L20.688 40.4521L20.5308 40.4278L20.3737 40.4019L20.2168 40.3743L20.0601 40.3454L19.9036 40.3148L19.7474 40.2825L19.5912 40.2488L19.4355 40.2136L19.2799 40.1767L19.1247 40.1383L18.9697 40.0984L18.815 40.0569L18.6607 40.0139L18.5068 39.9693L18.3532 39.9232L18.1999 39.8756L18.0471 39.8263L17.8947 39.7756L17.7426 39.7234L17.5911 39.6696L17.4401 39.6143L17.2894 39.5575L17.1393 39.4991L16.9897 39.4393L16.8406 39.3778L16.692 39.315L16.544 39.2507L16.3967 39.1847L16.2498 39.1174L16.1036 39.0486L15.958 38.9783L15.813 38.9064L15.6685 38.8331L15.525 38.7584L15.382 38.6822L15.2397 38.6046L15.0981 38.5255L14.9572 38.4449L14.817 38.363L14.6777 38.2796L14.5391 38.1947L14.4013 38.1086L14.2643 38.0209L14.1282 37.9319L13.9928 37.8413L13.8584 37.7495L13.7247 37.6564L13.592 37.5618L13.4601 37.4659L13.3291 37.3686L13.199 37.2699L13.07 37.17L12.9419 37.0687L12.8147 36.966L12.6885 36.8621L12.5632 36.7568L12.439 36.6503L12.3158 36.5424L12.1936 36.4333L12.0725 36.3229L11.9526 36.2114L11.8335 36.0985L11.7156 35.9844L11.5988 35.869L11.4833 35.7525L11.3687 35.6347L11.2553 35.5158L11.143 35.3956L11.032 35.2743L10.9221 35.1518L10.8134 35.0281L10.706 34.9033L10.5996 34.7775L10.4947 34.6504L10.3908 34.5222L10.2883 34.393L10.187 34.2627L10.0871 34.1313L9.98837 33.9988L9.89087 33.8654L9.79479 33.7307L9.70013 33.5952L9.60665 33.4586L9.51458 33.321L9.42389 33.1825L9.33456 33.0429L9.24659 32.9024L9.16004 32.7609L9.07488 32.6185L8.99113 32.4753L8.90881 32.331L8.82791 32.186L8.74847 32.0399L8.67048 31.8931L8.59395 31.7454L8.51889 31.5969L8.44532 31.4475L8.37324 31.2973L8.30266 31.1463L8.2336 30.9945L8.16605 30.842L8.10003 30.6887L8.03555 30.5346L7.97261 30.3799L7.91123 30.2245L7.85141 30.0683L7.79316 29.9115L7.73648 29.754L7.68139 29.5958L7.6279 29.4371L7.57601 29.2777L7.52572 29.1176L7.47706 28.9571L7.43001 28.7959L7.38459 28.6343L7.34081 28.472L7.29867 28.3092L7.25818 28.1459L7.21934 27.9821L7.18217 27.8179L7.14666 27.6531L7.11282 27.488L7.08066 27.3225L7.05018 27.1564L7.0214 26.99L6.99431 26.8233L6.96891 26.6561L6.94522 26.4887L6.92323 26.3209L6.90297 26.1527L6.88441 25.9843L6.86757 25.8156L6.85246 25.6466L6.83908 25.4774L6.82742 25.308L6.8175 25.1383L6.80932 24.9685L6.80288 24.7986L6.79819 24.6284L6.79523 24.4581L6.79403 24.2875L6.79458 24.117L6.79687 23.9464L6.80094 23.7757L6.80674 23.6049L6.81432 23.434L6.82365 23.2633L6.83474 23.0924L6.8476 22.9216L6.8622 22.7507L6.87858 22.5801L6.89674 22.4093L6.91664 22.2387L6.93831 22.0682L6.96175 21.8978L6.98695 21.7275L7.01392 21.5574L7.04263 21.3875L7.07312 21.2178L7.10538 21.0482L7.13939 20.8788L7.17515 20.7098L7.21268 20.5409L7.25197 20.3724L7.293 20.2041L7.33578 20.0362L7.38033 19.8686L7.42661 19.7013L7.47463 19.5344L7.52441 19.3679L7.57592 19.2017L7.62917 19.0359L7.68415 18.8707L7.74085 18.7058L7.79929 18.5414L7.85945 18.3775L7.92131 18.2141L7.9849 18.0512L8.05019 17.8888L8.11719 17.727L8.18589 17.5658L8.25628 17.4051L8.32837 17.2451L8.40213 17.0857L8.47757 16.9268L8.55469 16.7687L8.63348 16.6113L8.71392 16.4545L8.79603 16.2985L8.87977 16.143L8.96517 15.9885L9.0522 15.8346L9.14085 15.6814L9.23112 15.5292L9.32302 15.3777L9.41652 15.227L9.51163 15.0772L9.6083 14.9281L9.70663 14.7801L9.80637 14.6328L9.90789 14.4865L10.0108 14.341L10.1153 14.1965L10.2214 14.053L10.329 13.9104L10.4382 13.7688L10.5488 13.6281L10.6609 13.4886L10.7745 13.3501L10.8896 13.2125L11.0063 13.076L11.1243 12.9406L11.2438 12.8063L11.3648 12.6731L11.4872 12.541L11.611 12.41L11.7363 12.2802L11.8629 12.1516L11.9908 12.0241L12.1203 11.8977L12.2511 11.7727L12.3832 11.6487L12.5166 11.5262L12.6515 11.4047L12.7876 11.2846L12.925 11.1657L13.0637 11.0481L13.2037 10.9318L13.345 10.8168L13.4875 10.7031L13.6313 10.5909L13.7763 10.4799L13.9225 10.3703L14.07 10.2621L14.2186 10.1552L14.3683 10.0498L14.5193 9.94583L14.6714 9.84325L14.8246 9.7422L14.9791 9.64246L15.1345 9.54425L15.2911 9.4475L15.4487 9.35224L15.6074 9.25847L15.7671 9.16622L15.928 9.07548L16.0897 8.98626L16.2525 8.89861L16.4163 8.8125L16.581 8.72795L16.7467 8.64498L16.9134 8.56359L17.0809 8.48379L17.2495 8.4056L17.4188 8.32902L17.5891 8.25405L17.7602 8.18074L17.9322 8.10906L18.105 8.03902L18.2785 7.97065L18.4529 7.90395L18.6281 7.83893L18.804 7.7756L18.9807 7.71395L19.1581 7.65401L19.3362 7.59578L19.5149 7.53928L19.6944 7.48449L19.8745 7.43144L20.0553 7.38014L20.2366 7.33057L20.4186 7.28277L20.6012 7.23672L20.7844 7.19245L20.9681 7.14996L21.1523 7.10924L21.337 7.07031L21.5222 7.03318L21.708 6.99785L21.8941 6.96432L22.0807 6.9326L22.2678 6.90271L22.4553 6.87462L22.643 6.84838L22.8312 6.82395L22.9014 6.81553ZM22.9808 13.5154L22.9267 8.9486L22.7725 8.97015L22.6066 8.99501L22.4407 9.02152L22.2759 9.04954L22.1108 9.07927L21.9465 9.11053L21.7826 9.1434L21.6192 9.1778L21.4563 9.21383L21.2936 9.25146L21.1315 9.29064L20.9701 9.33137L20.8088 9.37372L20.6538 9.41602L20.4887 9.46294L20.3293 9.50985L20.1706 9.55831L20.0127 9.60818L19.8551 9.65971L19.6982 9.71277L19.542 9.76725L19.3865 9.82316L19.2317 9.88071L19.0776 9.93956L18.9241 10.0001L18.7718 10.0619L18.6194 10.1253L18.4683 10.1901L18.3178 10.2563L18.1684 10.3239L18.0194 10.393L17.8712 10.4636L17.7243 10.5353L17.5777 10.6087L17.4325 10.6833L17.2876 10.7595L17.1442 10.8367L17.0009 10.9157L16.8591 10.9956L16.7182 11.0771L16.5781 11.1599L16.439 11.2439L16.3006 11.3295L16.1636 11.416L16.0272 11.5041L15.8921 11.5933L15.758 11.6837L15.6248 11.7755L15.4925 11.8686L15.3616 11.9626L15.2315 12.0582L15.1025 12.1549L14.9746 12.2527L14.8479 12.3517L14.722 12.452L14.5976 12.5533L14.4742 12.6557L14.3518 12.7596L14.2309 12.8642L14.1108 12.9702L13.9919 13.0773L13.8743 13.1853L13.758 13.2944L13.6426 13.4048L13.5287 13.5159L13.416 13.6281L13.3043 13.7416L13.1941 13.8559L13.085 13.9713L12.9772 14.0876L12.8707 14.2049L12.7654 14.3232L12.6613 14.4425L12.5589 14.5625L12.4575 14.6836L12.3574 14.8057L12.2588 14.9285L12.1615 15.0521L12.0653 15.1769L11.9706 15.3023L11.8773 15.4286L11.7853 15.5558L11.6947 15.6838L11.6056 15.8124L11.5178 15.9419L11.4313 16.0723L11.3462 16.2033L11.2626 16.335L11.1805 16.4675L11.0996 16.6009L11.0202 16.7347L10.9423 16.8693L10.8658 17.0046L10.7908 17.1403L10.7172 17.2769L10.6449 17.4142L10.5743 17.5518L10.5051 17.6903L10.4373 17.8293L10.371 17.9686L10.3063 18.1088L10.2429 18.2493L10.1811 18.3904L10.1207 18.532L10.062 18.674L10.0047 18.8166L9.94878 18.9597L9.89442 19.1031L9.84171 19.247L9.7903 19.3914L9.74066 19.5359L9.69233 19.6811L9.64565 19.8265L9.60038 19.9724L9.55677 20.1184L9.51458 20.2649L9.47405 20.4115L9.43494 20.5587L9.39741 20.7059L9.36142 20.8535L9.32698 21.0014L9.29407 21.1493L9.26269 21.2977L9.2329 21.4461L9.20462 21.5947L9.17788 21.7436L9.15272 21.8925L9.12907 22.0416L9.10701 22.1906L9.08646 22.34L9.06748 22.4894L9.05003 22.6389L9.03414 22.7884L9.01979 22.938L9.00699 23.0876L8.99574 23.2371L8.98603 23.3869L8.97785 23.5365L8.97122 23.686L8.96614 23.8355L8.96258 23.9849L8.96057 24.1343L8.96009 24.2836L8.96114 24.4328L8.96373 24.5818L8.96784 24.7307L8.97346 24.8794L8.98063 25.0281L8.9893 25.1765L8.99949 25.3246L9.0112 25.4727L9.02441 25.6204L9.03914 25.7679L9.05536 25.9151L9.07308 26.0622L9.09231 26.2089L9.11301 26.3553L9.13522 26.5014L9.15889 26.647L9.18405 26.7925L9.21069 26.9377L9.23878 27.0822L9.26835 27.2266L9.29936 27.3704L9.33185 27.514L9.36575 27.6569L9.40113 27.7996L9.43793 27.9417L9.47617 28.0834L9.51577 28.2245L9.55689 28.3653L9.59932 28.5055L9.64328 28.6451L9.68855 28.7844L9.73523 28.9229L9.78333 29.0608L9.83273 29.1982L9.88355 29.3351L9.93578 29.4714L9.98932 29.6069L10.0442 29.7419L10.1004 29.8762L10.158 30.0099L10.2169 30.1429L10.2771 30.2752L10.3387 30.4068L10.4015 30.5377L10.4656 30.6679L10.5311 30.7974L10.5977 30.9262L10.6657 31.0542L10.7349 31.1813L10.8054 31.3078L10.8771 31.4334L10.95 31.5582L11.0242 31.6822L11.0996 31.8054L11.1762 31.9278L11.254 32.0493L11.333 32.17L11.4131 32.2896L11.4945 32.4086L11.5769 32.5266L11.6605 32.6437L11.7453 32.7599L11.8312 32.8751L11.9182 32.9894L12.0063 33.1028L12.0954 33.2152L12.1857 33.3267L12.2771 33.4372L12.3695 33.5467L12.463 33.6551L12.5575 33.7628L12.653 33.8691L12.7496 33.9747L12.8471 34.079L12.9456 34.1824L13.0451 34.2848L13.1457 34.3861L13.2471 34.4863L13.3496 34.5854L13.453 34.6835L13.5571 34.7804L13.6624 34.8764L13.7684 34.9711L13.8754 35.0647L13.9833 35.1572L14.092 35.2486L14.2016 35.3388L14.3119 35.4278L14.4231 35.5158L14.5352 35.6025L14.648 35.6882L14.7617 35.7726L14.876 35.8558L14.9911 35.9378L15.1071 36.0186L15.2237 36.0983L15.3412 36.1768L15.4592 36.2539L15.578 36.3299L15.6975 36.4047L15.8176 36.4782L15.9384 36.5506L16.0598 36.6216L16.1818 36.6913L16.3046 36.7599L16.4277 36.8271L16.5517 36.8932L16.6762 36.9579L16.8011 37.0213L16.9267 37.0836L17.0529 37.1444L17.1795 37.2041L17.3065 37.2624L17.4343 37.3195L17.5623 37.3751L17.6909 37.4295L17.8199 37.4827L17.9495 37.5344L18.0792 37.5849L18.2096 37.6341L18.3403 37.6819L18.4713 37.7285L18.6028 37.7736L18.7347 37.8176L18.8668 37.86L18.9993 37.9013L19.1321 37.9411L19.2652 37.9796L19.3985 38.0168L19.5322 38.0527L19.666 38.0873L19.8002 38.1204L19.9346 38.1522L20.0692 38.1827L20.204 38.2118L20.339 38.2396L20.4741 38.266L20.6095 38.291L20.7448 38.3148L20.8805 38.3372L21.0162 38.3582L21.1519 38.3779L21.2879 38.3962L21.4238 38.4132L21.5598 38.4288L21.6958 38.4431L21.832 38.456L21.9681 38.4676L22.1043 38.4778L22.2404 38.4867L22.3764 38.4942L22.5125 38.5005L22.6486 38.5053L22.7845 38.5088L22.9203 38.511L23.0561 38.5118L23.1918 38.5113L23.3273 38.5094L23.4628 38.5064L23.598 38.5019L23.7332 38.4961L23.868 38.4889L24.0027 38.4805L24.1372 38.4707L24.2716 38.4596L24.4056 38.4471L24.5395 38.4334L24.6732 38.4184L24.8065 38.4021L24.9396 38.3845L25.0723 38.3657L25.2048 38.3455L25.3369 38.324L25.4685 38.3013L25.6001 38.2772L25.7311 38.2519L25.8619 38.2254L25.9923 38.1975L26.1221 38.1685L26.2516 38.1382L26.3807 38.1065L26.5094 38.0738L26.6376 38.0398L26.7654 38.0044L26.8926 37.9679L27.0194 37.9302L27.1457 37.8913L27.2714 37.8512L27.3968 37.8098L27.5215 37.7673L27.6457 37.7235L27.7693 37.6786L27.8923 37.6325L28.0148 37.5852L28.1366 37.5368L28.258 37.4872L28.3786 37.4365L28.4986 37.3846L28.6181 37.3316L28.7367 37.2775L28.8549 37.2222L28.9724 37.1658L29.0889 37.1085L29.2052 37.0498L29.3204 36.9902L29.4352 36.9293L29.5489 36.8676L29.6621 36.8048L29.7746 36.7408L29.8862 36.6758L29.9972 36.6098L30.1073 36.5428L30.2165 36.4747L30.3252 36.4056L30.4328 36.3356L30.5397 36.2644L30.646 36.1922L30.7512 36.1192L30.8554 36.0453L30.9592 35.9702L31.0617 35.8944L31.1636 35.8175L31.2647 35.7396L31.3644 35.661L31.4638 35.5812L31.5621 35.5006L31.6591 35.4193L31.7558 35.3367L31.8512 35.2536L31.9456 35.1697L32.0395 35.0845L32.1319 34.999L32.2236 34.9123L32.3143 34.8249L32.4039 34.7367L32.4927 34.6476L32.5805 34.5578L32.6672 34.4671L32.7528 34.3758L32.8375 34.2836L32.9213 34.1907L33.0038 34.0972L33.0856 34.0027L33.1661 33.9077L33.2455 33.8119L33.3241 33.7153L33.4014 33.6184L33.4777 33.5204L33.553 33.4219L33.6272 33.3227L33.7003 33.2229L33.7721 33.1227L33.8431 33.0214L33.9129 32.9199L33.9815 32.8177L34.0493 32.7147L34.1154 32.6116L34.1809 32.5076L34.2451 32.403L34.3082 32.298L34.37 32.1925L34.431 32.0862L34.4904 31.98L34.549 31.8727L34.6064 31.7653L34.6624 31.6574L34.7176 31.5486L34.7712 31.4401L34.8241 31.3305L34.8753 31.2212L34.9259 31.1107L34.9749 31.0004L35.0229 30.8892L35.0698 30.7781L35.1152 30.6665L35.1597 30.5545L35.2029 30.4421L35.2448 30.3297L35.2858 30.2166L35.3253 30.1034L35.3637 29.9899L35.4009 29.8761L35.4369 29.762L35.4718 29.6477L35.5054 29.5333L35.5378 29.4184L35.5688 29.3035L35.5989 29.1883L35.6276 29.073L35.6551 28.9576L35.6815 28.8417L35.7065 28.7259L35.7305 28.6099L35.7531 28.494L35.7746 28.3778L35.7948 28.2612L35.8138 28.145L35.8317 28.0285L35.8482 27.9118L35.8636 27.7954L35.8778 27.6788L35.8908 27.5618L35.9025 27.4456L35.9131 27.3285L35.9224 27.2118L35.9305 27.0954L35.9374 26.9787L35.9431 26.8621L35.9476 26.7457L35.9509 26.629L35.9529 26.5129L35.9539 26.3964L35.9535 26.2802L35.9521 26.164L35.9494 26.0483L35.9455 25.9324L35.9404 25.8167L35.9341 25.7015L35.9267 25.5859L35.9181 25.4707L35.9084 25.356L35.8974 25.241L35.8852 25.1268L35.8718 25.0122L35.8574 24.8983L35.8418 24.7845L35.8251 24.6708L35.8071 24.5576L35.7881 24.4447L35.7678 24.3321L35.7465 24.2198L35.7239 24.1074L35.7003 23.9959L35.6756 23.8847L35.6497 23.7736L35.6226 23.6627L35.5946 23.5528L35.5653 23.4425L35.535 23.3332L35.5036 23.224L35.4711 23.1155L35.4375 23.0072L35.4028 22.8993L35.3671 22.7921L35.3303 22.6852L35.2923 22.5785L35.2535 22.4727L35.2135 22.3672L35.1725 22.2624L35.1304 22.1578L35.0872 22.0537L35.0432 21.9505L34.9979 21.8474L34.9518 21.7452L34.9047 21.6436L34.8564 21.5422L34.8072 21.4414L34.7572 21.3415L34.7059 21.2419L34.6539 21.1432L34.6008 21.0451L34.5467 20.9471L34.4918 20.8503L34.4358 20.7539L34.379 20.6583L34.3211 20.563L34.2626 20.4689L34.2028 20.3749L34.1424 20.282L34.0809 20.1897L34.0186 20.0981L33.9553 20.007L33.8912 19.9168L33.8265 19.8275L33.7605 19.7385L33.694 19.6506L33.6264 19.5632L33.5583 19.4768L33.4891 19.3909L33.4191 19.3059L33.3483 19.2217L33.2768 19.1381L33.2046 19.0556L33.1313 18.9736L33.0576 18.8927L32.9829 18.8123L32.9077 18.7331L32.8314 18.6543L32.7547 18.5766L32.6769 18.4995L32.5987 18.4235L32.5199 18.3483L32.4402 18.2739L32.3597 18.2002L32.2787 18.1277L32.197 18.0559L32.1144 17.9848L32.0318 17.9151L31.948 17.8457L31.8637 17.7775L31.7789 17.7103L31.6933 17.6436L31.6073 17.5781L31.5209 17.5137L31.4334 17.4499L31.3454 17.3869L31.2573 17.3253L31.1681 17.2642L31.079 17.2046L30.989 17.1455L30.8985 17.0873L30.8074 17.0301L30.7162 16.9741L30.624 16.9188L30.5317 16.8647L30.4386 16.8112L30.3456 16.7591L30.2517 16.7078L30.1574 16.6574L30.0627 16.608L29.9678 16.5598L29.8724 16.5122L29.7764 16.4658L29.6803 16.4204L29.584 16.3761L29.4866 16.3325L29.3897 16.2902L29.2921 16.2488L29.194 16.2083L29.0958 16.1689L28.9974 16.1306L28.8986 16.0933L28.7993 16.0568L28.7001 16.0216L28.6004 15.9872L28.5004 15.9538L28.4005 15.9216L28.3002 15.8904L28.1998 15.8601L28.0987 15.8308L27.9979 15.8027L27.8968 15.7755L27.7955 15.7494L27.6941 15.7242L27.5923 15.7001L27.4906 15.6771L27.389 15.6551L27.2869 15.634L27.1845 15.6139L27.0828 15.5952L26.9803 15.5772L26.8781 15.5603L26.7754 15.5443L26.6733 15.5296L26.5703 15.5156L26.4681 15.503L26.3655 15.4912L26.263 15.4804L26.1605 15.4707L26.0578 15.462L25.9556 15.4543L25.8528 15.4477L25.7504 15.442L25.6483 15.4374L25.5455 15.4337L25.4435 15.4311L25.3414 15.4296L25.2394 15.429L25.1697 15.4292L25.2225 19.8911L25.254 19.8912L25.3127 19.892L25.3714 19.8934L25.4303 19.8953L25.4891 19.898L25.5481 19.9012L25.607 19.905L25.6661 19.9095L25.7252 19.9146L25.7844 19.9203L25.8437 19.9265L25.9029 19.9334L25.9622 19.9409L26.0214 19.9491L26.0807 19.9578L26.14 19.9673L26.1994 19.9773L26.2586 19.988L26.3179 19.9993L26.3771 20.0111L26.4363 20.0238L26.4955 20.0369L26.5548 20.0507L26.6137 20.0651L26.6728 20.0802L26.7318 20.0959L26.7906 20.1122L26.8495 20.1291L26.9082 20.1467L26.9669 20.1649L27.0253 20.1838L27.0839 20.2033L27.1421 20.2234L27.2004 20.2441L27.2584 20.2655L27.3163 20.2874L27.3741 20.31L27.4318 20.3333L27.4892 20.3572L27.5465 20.3816L27.6037 20.4068L27.6607 20.4326L27.7175 20.4589L27.7741 20.486L27.8305 20.5135L27.8868 20.5418L27.9427 20.5707L27.9985 20.6002L28.054 20.6303L28.1093 20.661L28.1644 20.6923L28.2192 20.7242L28.2737 20.7567L28.3281 20.79L28.3821 20.8238L28.4359 20.8581L28.4893 20.893L28.5424 20.9286L28.5954 20.9649L28.648 21.0016L28.7002 21.039L28.7522 21.0769L28.8039 21.1154L28.8552 21.1545L28.9061 21.1943L28.9568 21.2346L29.007 21.2754L29.0569 21.3168L29.1065 21.3589L29.1557 21.4014L29.2045 21.4446L29.253 21.4883L29.3009 21.5326L29.3486 21.5774L29.3957 21.6228L29.4426 21.6688L29.489 21.7152L29.5349 21.7622L29.5806 21.8097L29.6256 21.8578L29.6703 21.9065L29.7145 21.9557L29.7583 22.0053L29.8016 22.0556L29.8443 22.1063L29.8868 22.1574L29.9286 22.2092L29.97 22.2614L30.0109 22.3141L30.0513 22.3674L30.0912 22.4211L30.1306 22.4753L30.1693 22.5299L30.2078 22.5851L30.2456 22.6408L30.2828 22.6969L30.3196 22.7534L30.3558 22.8105L30.3914 22.8679L30.4265 22.9259L30.461 22.9842L30.4949 23.043L30.5284 23.1022L30.5611 23.1619L30.5934 23.2219L30.625 23.2824L30.656 23.3433L30.6865 23.4045L30.7163 23.4662L30.7455 23.5283L30.7741 23.5907L30.8021 23.6536L30.8295 23.7168L30.8562 23.7804L30.8823 23.8444L30.9077 23.9087L30.9326 23.9733L30.9568 24.0383L30.9803 24.1037L31.0031 24.1694L31.0253 24.2353L31.0468 24.3016L31.0676 24.3683L31.0879 24.4352L31.1073 24.5024L31.1261 24.57L31.1443 24.6377L31.1618 24.7058L31.1785 24.7742L31.1946 24.8429L31.2099 24.9117L31.2246 24.9809L31.2385 25.0503L31.2517 25.1198L31.2642 25.1897L31.276 25.2598L31.2871 25.33L31.2974 25.4006L31.307 25.4713L31.3158 25.5422L31.324 25.6133L31.3314 25.6846L31.338 25.756L31.3439 25.8276L31.3491 25.8994L31.3535 25.9713L31.3572 26.0434L31.36 26.1156L31.3623 26.1879L31.3636 26.2604L31.3643 26.3329L31.364 26.4055L31.3632 26.4783L31.3616 26.5512L31.3591 26.6241L31.3559 26.6972L31.3519 26.7702L31.3471 26.8433L31.3416 26.9165L31.3352 26.9898L31.3281 27.063L31.3203 27.1363L31.3116 27.2096L31.3021 27.283L31.292 27.3564L31.281 27.4296L31.2691 27.5029L31.2565 27.5762L31.2431 27.6495L31.229 27.7227L31.2141 27.7959L31.1982 27.869L31.1817 27.9421L31.1644 28.0151L31.1462 28.088L31.1273 28.161L31.1077 28.2336L31.0871 28.3063L31.0659 28.3788L31.0438 28.4512L31.021 28.5235L30.9973 28.5956L30.9729 28.6677L30.9477 28.7396L30.9216 28.8112L30.8947 28.8828L30.8672 28.9541L30.8388 29.0253L30.8097 29.0962L30.7797 29.167L30.749 29.2376L30.7175 29.308L30.6852 29.3781L30.6521 29.448L30.6182 29.5177L30.5837 29.5871L30.5482 29.6562L30.5121 29.7251L30.4751 29.7936L30.4374 29.8619L30.399 29.93L30.3597 29.9977L30.3197 30.0652L30.279 30.1322L30.2374 30.1991L30.1952 30.2655L30.1522 30.3316L30.1084 30.3974L30.0639 30.4628L30.0187 30.5279L29.9727 30.5925L29.9259 30.6568L29.8785 30.7208L29.8303 30.7842L29.7814 30.8473L29.7317 30.9101L29.6814 30.9724L29.6303 31.0342L29.5786 31.0956L29.5261 31.1566L29.4728 31.2171L29.4189 31.2772L29.3643 31.3369L29.309 31.3959L29.2531 31.4546L29.1964 31.5128L29.139 31.5705L29.081 31.6276L29.0224 31.6843L28.9629 31.7404L28.9029 31.796L28.8423 31.8511L28.7809 31.9057L28.719 31.9597L28.6564 32.0131L28.5932 32.0659L28.5292 32.1183L28.4647 32.17L28.3996 32.2211L28.3339 32.2717L28.2676 32.3217L28.2006 32.3711L28.1331 32.4198L28.0649 32.4679L27.9962 32.5155L27.9268 32.5623L27.857 32.6086L27.7866 32.6541L27.7155 32.6991L27.6439 32.7435L27.5718 32.7871L27.4991 32.83L27.426 32.8723L27.3522 32.9139L27.2779 32.9548L27.2032 32.9951L27.1279 33.0345L27.0522 33.0734L26.9758 33.1115L26.8991 33.1489L26.8218 33.1856L26.7441 33.2215L26.666 33.2567L26.5872 33.2911L26.5082 33.3249L26.4286 33.3579L26.3486 33.39L26.2682 33.4215L26.1873 33.4522L26.106 33.4821L26.0243 33.5113L25.9423 33.5396L25.8598 33.5672L25.777 33.594L25.6938 33.6199L25.6102 33.6451L25.5262 33.6695L25.4419 33.693L25.3573 33.7159L25.2724 33.7377L25.187 33.7589L25.1013 33.7791L25.0154 33.7986L24.9292 33.8171L24.8426 33.835L24.7558 33.8519L24.6687 33.868L24.5814 33.8832L24.4937 33.8976L24.4058 33.9111L24.3177 33.9237L24.2294 33.9356L24.1408 33.9465L24.052 33.9566L23.963 33.9657L23.8738 33.9741L23.7844 33.9814L23.6949 33.988L23.605 33.9936L23.5152 33.9984L23.4252 34.0023L23.335 34.0053L23.2446 34.0073L23.1542 34.0085L23.0637 34.0088L22.973 34.0082L22.8822 34.0067L22.7914 34.0042L22.7005 34.0009L22.6095 33.9967L22.5184 33.9915L22.4272 33.9854L22.3361 33.9785L22.245 33.9705L22.1538 33.9617L22.0627 33.952L21.9714 33.9412L21.8803 33.9296L21.7891 33.9171L21.6979 33.9038L21.6068 33.8893L21.5158 33.8741L21.4248 33.8579L21.3339 33.8408L21.2431 33.8228L21.1523 33.8038L21.0617 33.7839L20.9711 33.763L20.8807 33.7413L20.7903 33.7187L20.7001 33.6951L20.6102 33.6705L20.5203 33.6451L20.4307 33.6187L20.3411 33.5914L20.2518 33.5632L20.1626 33.5341L20.0737 33.5041L19.985 33.4731L19.8965 33.4412L19.8082 33.4083L19.7203 33.3747L19.6325 33.34L19.545 33.3045L19.4578 33.2681L19.3709 33.2307L19.2843 33.1924L19.1979 33.1533L19.112 33.1132L19.0262 33.0722L18.9409 33.0304L18.8559 32.9876L18.7713 32.944L18.687 32.8995L18.6031 32.8541L18.5196 32.8077L18.4365 32.7606L18.3536 32.7125L18.2714 32.6636L18.1895 32.6138L18.1081 32.5631L18.027 32.5116L17.9464 32.4592L17.8663 32.4059L17.7866 32.3518L17.7075 32.2968L17.6288 32.2411L17.5506 32.1845L17.4729 32.1269L17.3958 32.0686L17.3192 32.0095L17.2431 31.9495L17.1676 31.8888L17.0925 31.8272L17.0181 31.7648L16.9442 31.7016L16.8709 31.6375L16.7982 31.5727L16.7262 31.5072L16.6547 31.4407L16.5837 31.3736L16.5135 31.3057L16.4438 31.237L16.3749 31.1675L16.3066 31.0973L16.2389 31.0263L16.1719 30.9547L16.1056 30.8821L16.04 30.8089L15.975 30.7351L15.9108 30.6604L15.8472 30.5851L15.7844 30.509L15.7223 30.4322L15.661 30.3548L15.6004 30.2766L15.5404 30.1978L15.4813 30.1183L15.4231 30.0382L15.3655 29.9573L15.3087 29.8758L15.2527 29.7936L15.1975 29.7109L15.1431 29.6275L15.0896 29.5434L15.0367 29.4588L14.9849 29.3736L14.9337 29.2877L14.8835 29.2013L14.8341 29.1142L14.7855 29.0266L14.7377 28.9385L14.6909 28.8497L14.645 28.7604L14.5998 28.6706L14.5556 28.5803L14.5124 28.4893L14.4699 28.3979L14.4285 28.306L14.3879 28.2135L14.3482 28.1205L14.3095 28.0272L14.2716 27.9332L14.2348 27.8389L14.1988 27.744L14.164 27.6488L14.1299 27.553L14.0968 27.4569L14.0647 27.3604L14.0336 27.2634L14.0035 27.166L13.9743 27.0682L13.946 26.97L13.9189 26.8715L13.8927 26.7726L13.8675 26.6733L13.8433 26.5737L13.8202 26.4738L13.798 26.3735L13.7768 26.2729L13.7567 26.172L13.7376 26.0708L13.7195 25.9693L13.7025 25.8675L13.6865 25.7655L13.6715 25.6632L13.6576 25.5607L13.6448 25.4579L13.633 25.355L13.6222 25.2517L13.6125 25.1483L13.6039 25.0446L13.5963 24.9409L13.5898 24.8369L13.5844 24.7327L13.58 24.6285L13.5767 24.524L13.5746 24.4194L13.5735 24.3148L13.5734 24.21L13.5745 24.1051L13.5767 24.0001L13.5799 23.8951L13.5843 23.7899L13.5897 23.6847L13.5962 23.5795L13.6038 23.4742L13.6125 23.3689L13.6223 23.2636L13.6332 23.1583L13.6453 23.053L13.6584 22.9477L13.6726 22.8425L13.6879 22.7374L13.7044 22.6322L13.722 22.5271L13.7405 22.422L13.7603 22.3171L13.7812 22.2123L13.8032 22.1076L13.8262 22.003L13.8503 21.8985L13.8756 21.7943L13.902 21.69L13.9295 21.586L13.9581 21.4823L13.9878 21.3786L14.0185 21.2751L14.0504 21.1719L14.0834 21.0689L14.1174 20.966L14.1526 20.8636L14.1889 20.7612L14.2263 20.6592L14.2647 20.5575L14.3043 20.4561L14.3449 20.3549L14.3866 20.254L14.4294 20.1535L14.4733 20.0533L14.5183 19.9535L14.5643 19.854L14.6114 19.7548L14.6595 19.6561L14.7088 19.5577L14.759 19.4597L14.8104 19.3622L14.8628 19.2651L14.9163 19.1684L14.9708 19.0721L15.0263 18.9762L15.083 18.881L15.1406 18.7861L15.1992 18.6916L15.259 18.5978L15.3198 18.5043L15.3815 18.4114L15.4442 18.3191L15.5081 18.2273L15.5728 18.1361L15.6386 18.0454L15.7054 17.9552L15.7731 17.8657L15.8419 17.7768L15.9116 17.6884L15.9824 17.6007L16.0542 17.5135L16.1267 17.4271L16.2004 17.3412L16.2749 17.256L16.3505 17.1715L16.4269 17.0876L16.5043 17.0045L16.5827 16.922L16.662 16.8402L16.7421 16.7591L16.8232 16.6788L16.9052 16.5991L16.988 16.5203L17.0718 16.4422L17.1565 16.3648L17.2419 16.2882L17.3283 16.2123L17.4156 16.1374L17.5037 16.063L17.5927 15.9896L17.6824 15.9171L17.773 15.8452L17.8644 15.7743L17.9567 15.7042L18.0497 15.635L18.1435 15.5666L18.2382 15.4991L18.3335 15.4324L18.4297 15.3666L18.5268 15.3017L18.6244 15.2378L18.7228 15.1748L18.8221 15.1126L18.922 15.0514L19.0227 14.9911L19.1239 14.9318L19.2261 14.8734L19.3288 14.816L19.4322 14.7595L19.5363 14.7041L19.641 14.6496L19.7464 14.596L19.8524 14.5436L19.9591 14.492L20.0664 14.4416L20.1743 14.3921L20.2828 14.3436L20.3919 14.2962L20.5017 14.2498L20.612 14.2044L20.7227 14.1602L20.8342 14.1169L20.9461 14.0747L21.0585 14.0336L21.1714 13.9937L21.285 13.9547L21.3989 13.9169L21.5135 13.8801L21.6283 13.8444L21.7438 13.8099L21.8596 13.7765L21.9759 13.7442L22.0927 13.713L22.2098 13.6829L22.3274 13.6539L22.4453 13.6261L22.5637 13.5995L22.6824 13.574L22.8015 13.5497L22.9209 13.5265L22.9808 13.5154ZM24.4485 22.0957L23.0863 22.4212L23.0063 15.6736L22.9422 15.688L22.8455 15.7109L22.7489 15.7346L22.6531 15.7592L22.5574 15.7847L22.4622 15.8112L22.3671 15.8387L22.2729 15.8669L22.1785 15.8962L22.0852 15.9261L21.9917 15.9571L21.8989 15.9891L21.8064 16.0218L21.7144 16.0554L21.6231 16.0897L21.532 16.1252L21.4414 16.1614L21.3513 16.1984L21.2614 16.2364L21.1726 16.2749L21.0839 16.3146L20.9959 16.3549L20.9081 16.3963L20.8212 16.4383L20.7344 16.4812L20.6486 16.5248L20.5632 16.5692L20.4783 16.6145L20.394 16.6604L20.3103 16.7072L20.2271 16.7549L20.1448 16.8031L20.0624 16.8524L19.9811 16.9021L19.9005 16.9527L19.8204 17.004L19.7407 17.0561L19.6619 17.1089L19.5837 17.1625L19.506 17.2166L19.4292 17.2714L19.3527 17.3271L19.2771 17.3835L19.2022 17.4404L19.1278 17.4981L19.0543 17.5563L18.9815 17.6152L18.9092 17.6749L18.8376 17.7353L18.7669 17.7961L18.6968 17.8576L18.6275 17.9197L18.5588 17.9824L18.4908 18.0459L18.4237 18.1098L18.3573 18.1742L18.2915 18.2395L18.2266 18.3051L18.1624 18.3714L18.0991 18.438L18.0362 18.5056L17.9744 18.5733L17.9133 18.6418L17.8529 18.7108L17.7935 18.78L17.7346 18.8501L17.6768 18.9203L17.6195 18.9915L17.5632 19.0627L17.5076 19.1347L17.4529 19.2071L17.399 19.2798L17.3458 19.353L17.2935 19.4266L17.242 19.5008L17.1913 19.5753L17.1416 19.6503L17.0926 19.7255L17.0445 19.8011L16.9971 19.8774L16.9508 19.9537L16.9051 20.0308L16.8604 20.1077L16.8164 20.1853L16.7733 20.2632L16.7312 20.3413L16.6899 20.4198L16.6495 20.4986L16.6097 20.5779L16.5711 20.6571L16.5332 20.737L16.4962 20.8169L16.4601 20.8971L16.4248 20.9776L16.3904 21.0585L16.357 21.1393L16.3243 21.2206L16.2927 21.302L16.2617 21.3837L16.2318 21.4654L16.2027 21.5475L16.1745 21.6298L16.1472 21.7121L16.1207 21.7946L16.0952 21.8775L16.0705 21.9603L16.0468 22.0432L16.0239 22.1264L16.0018 22.2097L15.9808 22.293L15.9606 22.3764L15.9412 22.46L15.9228 22.5437L15.9053 22.6274L15.8886 22.7111L15.8728 22.7949L15.8579 22.8789L15.8439 22.9627L15.8308 23.0466L15.8185 23.1308L15.8072 23.2146L15.7968 23.2987L15.7872 23.3825L15.7785 23.4665L15.7707 23.5507L15.7637 23.6345L15.7577 23.7184L15.7525 23.8023L15.7481 23.886L15.7447 23.9696L15.7421 24.0532L15.7404 24.1369L15.7395 24.2203L15.7396 24.3036L15.7404 24.3868L15.7422 24.47L15.7448 24.553L15.7482 24.6358L15.7525 24.7186L15.7577 24.801L15.7637 24.8834L15.7705 24.9657L15.7782 25.0477L15.7867 25.1297L15.7961 25.2111L15.8062 25.2928L15.8172 25.3739L15.8292 25.4551L15.8418 25.5358L15.8553 25.6164L15.8696 25.6969L15.8847 25.7769L15.9007 25.8568L15.9173 25.9362L15.9349 26.0156L15.9532 26.0945L15.9724 26.1734L15.9922 26.2516L16.013 26.33L16.0344 26.4076L16.0567 26.4853L16.0797 26.5623L16.1035 26.6392L16.128 26.7157L16.1533 26.7917L16.1794 26.8677L16.2063 26.9431L16.2338 27.018L16.2621 27.0928L16.2911 27.1672L16.3209 27.241L16.3514 27.3145L16.3825 27.3876L16.4145 27.4604L16.4471 27.5327L16.4805 27.6046L16.5145 27.6759L16.5491 27.7468L16.5847 27.8176L16.6206 27.8876L16.6574 27.9572L16.6948 28.0265L16.733 28.0951L16.7718 28.1634L16.8111 28.2313L16.8512 28.2984L16.892 28.3653L16.9332 28.4316L16.9752 28.4973L17.0178 28.5627L17.061 28.6274L17.1048 28.6918L17.1491 28.7553L17.1942 28.8186L17.2398 28.8813L17.2859 28.9433L17.3328 29.005L17.3801 29.066L17.4279 29.1264L17.4764 29.1863L17.5254 29.2457L17.5748 29.3044L17.625 29.3626L17.6756 29.4203L17.7267 29.4773L17.7786 29.5338L17.8306 29.5894L17.8833 29.6448L17.9365 29.6994L17.99 29.7535L18.0442 29.8069L18.0988 29.8597L18.1539 29.9119L18.2095 29.9635L18.2655 30.0144L18.322 30.0647L18.3788 30.1144L18.4361 30.1634L18.4938 30.2119L18.5519 30.2596L18.6106 30.3068L18.6697 30.3532L18.7289 30.399L18.7887 30.4441L18.8488 30.4887L18.9093 30.5325L18.9702 30.5756L19.0314 30.6182L19.093 30.66L19.1549 30.7012L19.2171 30.7416L19.2796 30.7814L19.3427 30.8206L19.4058 30.8589L19.4693 30.8967L19.5332 30.9339L19.5971 30.9701L19.6614 31.0058L19.7263 31.0409L19.7912 31.0752L19.8563 31.1088L19.9217 31.1416L19.9875 31.1739L20.0532 31.2053L20.1195 31.2362L20.1858 31.2663L20.2522 31.2956L20.3191 31.3243L20.3861 31.3523L20.4531 31.3796L20.5205 31.4062L20.588 31.432L20.6558 31.4572L20.7234 31.4816L20.7916 31.5054L20.8596 31.5283L20.9278 31.5506L20.9962 31.5723L21.0647 31.5932L21.1333 31.6133L21.2019 31.6328L21.2708 31.6515L21.3397 31.6695L21.4086 31.6868L21.4777 31.7035L21.5467 31.7193L21.6158 31.7344L21.6851 31.749L21.7543 31.7627L21.8236 31.7758L21.8928 31.7881L21.9622 31.7998L22.0316 31.8106L22.1009 31.8209L22.1701 31.8304L22.2395 31.8391L22.3087 31.8473L22.3781 31.8547L22.4473 31.8613L22.5166 31.8674L22.5857 31.8727L22.6547 31.8773L22.7239 31.8812L22.7928 31.8844L22.8616 31.887L22.9306 31.8888L22.9991 31.8899L23.0677 31.8904L23.1362 31.8902L23.2045 31.8894L23.273 31.8877L23.3412 31.8855L23.409 31.8826L23.4768 31.879L23.5448 31.8747L23.6121 31.8697L23.6796 31.8642L23.7467 31.8579L23.8139 31.8511L23.8808 31.8434L23.9473 31.8352L24.014 31.8264L24.0801 31.8168L24.1461 31.8066L24.2121 31.7959L24.2777 31.7844L24.3431 31.7724L24.4083 31.7596L24.4733 31.7462L24.5379 31.7323L24.6021 31.7178L24.6664 31.7025L24.7304 31.6867L24.794 31.6704L24.8573 31.6533L24.9203 31.6357L24.9833 31.6174L25.0457 31.5986L25.1076 31.5792L25.1698 31.5592L25.2312 31.5386L25.2924 31.5176L25.3533 31.4958L25.4138 31.4735L25.4742 31.4505L25.5341 31.4271L25.5936 31.4032L25.6528 31.3787L25.7116 31.3535L25.7703 31.3279L25.8282 31.3018L25.8861 31.275L25.9434 31.2479L26.0002 31.2201L26.057 31.1918L26.113 31.1631L26.1689 31.1338L26.2243 31.1039L26.2793 31.0737L26.3337 31.0429L26.388 31.0116L26.4418 30.9798L26.4949 30.9476L26.5478 30.9148L26.6003 30.8816L26.6523 30.8481L26.7039 30.8139L26.7549 30.7794L26.8056 30.7443L26.8559 30.7088L26.9055 30.673L26.9548 30.6366L27.0036 30.5999L27.0519 30.5626L27.0998 30.5251L27.1473 30.487L27.1941 30.4487L27.2406 30.41L27.2864 30.3707L27.3318 30.3311L27.3768 30.2912L27.4213 30.2508L27.4652 30.2101L27.5085 30.1691L27.5515 30.1276L27.5939 30.0858L27.6359 30.0437L27.6772 30.0013L27.718 29.9584L27.7583 29.9154L27.7983 29.8718L27.8374 29.8281L27.8763 29.7839L27.9144 29.7395L27.952 29.695L27.9894 29.6498L28.0258 29.6047L28.0619 29.559L28.0975 29.5133L28.1324 29.4672L28.1669 29.4208L28.2007 29.3743L28.234 29.3273L28.2668 29.2801L28.299 29.233L28.3307 29.1852L28.3619 29.1375L28.3922 29.0895L28.4223 29.0413L28.4517 28.9928L28.4805 28.9441L28.5089 28.8953L28.5365 28.8463L28.5637 28.7971L28.5903 28.7476L28.6163 28.6982L28.6417 28.6485L28.6667 28.5986L28.691 28.5486L28.7148 28.4982L28.7379 28.448L28.7605 28.3976L28.7825 28.3471L28.804 28.2963L28.8248 28.2456L28.8452 28.1944L28.8649 28.1437L28.8841 28.0922L28.9025 28.0415L28.9206 27.9899L28.9381 27.9384L28.9549 27.8871L28.9712 27.8356L28.9869 27.7842L29.0022 27.7322L29.0166 27.6809L29.0308 27.6288L29.0441 27.5775L29.057 27.5255L29.0693 27.4735L29.081 27.4218L29.0921 27.3703L29.1028 27.3181L29.1128 27.2664L29.1222 27.2143L29.1311 27.1628L29.1395 27.111L29.1473 27.0591L29.1545 27.0073L29.1611 26.9555L29.1673 26.904L29.1728 26.8526L29.1778 26.8007L29.1823 26.7493L29.1862 26.6977L29.1895 26.6463L29.1923 26.595L29.1946 26.5439L29.1962 26.4929L29.1974 26.4416L29.1981 26.3905L29.1982 26.3398L29.1978 26.2891L29.1968 26.2385L29.1953 26.188L29.1933 26.1373L29.1907 26.0876L29.1876 26.0368L29.1841 25.9872L29.1799 25.9375L29.1753 25.8874L29.1701 25.8379L29.1646 25.7888L29.1583 25.7391L29.1517 25.6904L29.1445 25.6413L29.1369 25.593L29.1286 25.5442L29.12 25.4957L29.1109 25.4477L29.1013 25.3999L29.0912 25.3519L29.0805 25.3045L29.0695 25.2571L29.058 25.2101L29.046 25.1634L29.0334 25.1164L29.0206 25.0703L29.0071 25.0237L28.9933 24.978L28.979 24.9322L28.9642 24.8868L28.949 24.8416L28.9333 24.7964L28.9173 24.752L28.9008 24.7077L28.8838 24.6632L28.8664 24.6195L28.8485 24.5756L28.8305 24.5327L28.8117 24.4893L28.7928 24.4466L28.7733 24.4043L28.7534 24.362L28.7332 24.3202L28.7125 24.2786L28.6915 24.2372L28.6701 24.1963L28.6482 24.1557L28.6261 24.1154L28.6035 24.0753L28.5805 24.0356L28.5573 23.9962L28.5337 23.9572L28.5096 23.9183L28.4852 23.8802L28.4606 23.8421L28.4355 23.8044L28.4101 23.767L28.3844 23.7301L28.3583 23.6933L28.332 23.657L28.3053 23.6211L28.2782 23.5855L28.251 23.5503L28.2232 23.5153L28.1953 23.481L28.1671 23.4468L28.1386 23.413L28.1098 23.3796L28.0808 23.3466L28.0514 23.314L28.0217 23.2817L27.9918 23.2497L27.9617 23.2182L27.9312 23.1872L27.9005 23.1563L27.8696 23.1261L27.8384 23.0962L27.8071 23.0666L27.7752 23.0373L27.7435 23.0086L27.7114 22.9801L27.6791 22.9522L27.6465 22.9246L27.6138 22.8975L27.5808 22.8707L27.5477 22.8443L27.5144 22.8183L27.4808 22.7927L27.4471 22.7676L27.4132 22.7428L27.3791 22.7184L27.3449 22.6946L27.3105 22.6709L27.276 22.6479L27.2413 22.6252L27.2063 22.6029L27.1714 22.581L27.1361 22.5595L27.1009 22.5385L27.0655 22.5179L27.03 22.4977L26.9942 22.4778L26.9585 22.4584L26.9227 22.4394L26.8866 22.4209L26.8507 22.4028L26.8143 22.3849L26.7781 22.3677L26.7417 22.3509L26.7053 22.3344L26.6688 22.3183L26.632 22.3026L26.5956 22.2874L26.5588 22.2727L26.5219 22.2582L26.4851 22.2443L26.4483 22.2307L26.4114 22.2176L26.3744 22.2048L26.3374 22.1924L26.3005 22.1806L26.2634 22.169L26.2263 22.1579L26.1894 22.1473L26.1521 22.137L26.1152 22.1272L26.0781 22.1177L26.041 22.1086L26.0039 22.1L25.9669 22.0917L25.9298 22.0839L25.8928 22.0765L25.8559 22.0694L25.8191 22.0628L25.782 22.0565L25.7453 22.0507L25.7082 22.0453L25.6717 22.0402L25.6348 22.0355L25.5982 22.0312L25.5618 22.0273L25.5251 22.0239L25.4887 22.0207L25.4523 22.018L25.4161 22.0156L25.3798 22.0136L25.3436 22.0121L25.3078 22.0109L25.2718 22.0099L25.236 22.0095L25.2001 22.0094L25.1646 22.0097L25.129 22.0103L25.0937 22.0112L25.0583 22.0127L25.0233 22.0143L24.9881 22.0164L24.9534 22.0188L24.9186 22.0215L24.884 22.0247L24.8496 22.0281L24.8151 22.0319L24.7811 22.0361L24.747 22.0406L24.7132 22.0454L24.6794 22.0506L24.646 22.056L24.6125 22.0618L24.5796 22.068L24.5464 22.0745L24.5136 22.0812L24.4809 22.0883L24.4485 22.0957Z" fill="#F1C510"/>
</svg>
